<?xml version="1.0" encoding="UTF-8"?>
<svg version="1.1" viewBox="0 0 1024 1024" width="1024" height="1024" xmlns="http://www.w3.org/2000/svg">
<path transform="translate(0)" d="m0 0h1024v1024h-1024z" fill="#F0F0F0"/>
<path transform="translate(451,275)" d="m0 0 5 3 19 19 8 7 25 25v25l-6 1-17-1 1 95 14 14 36 1v73l-1 51-4 3-1 5 3 5 1 1h6l4-4v-6l-3-3-2-1v-124h34l2-4 14-14h54l1 46h10l5-5h6l4 4v7l-3 3-6 1-5-4v-2l-11 1-1 33-14 12-11 9-10 9-11 9-15 13-14 12-10 9-11 9-12 11-11 9-5 5h-2l-1-128-8-8-8-7-14-12-15-14-8-7-1-65-19-19-16-1-1-10-4-1v11h-10l-1-10-4-1v11h-37v-56l-13 1-5 5-7-1-2-3v-7l3-3 6-1 5 5 13 1v-24l25-6 47-10z" fill="#B02D30"/>
<path transform="translate(394,385)" d="m0 0h12l1 1 1 12 3 1v-13l1-1h9l1 1v12h4v-12l4-1h7l5 3 12 12 1 65 13 12 8 7 11 10 8 7 13 11v125l-6-4-10-9-11-9-12-11-11-9-11-10-11-9-14-12-15-13-6-5v-63l5-4v-7l-3-3h-6l-4 4v6l5 4v59l-5-3-12-10v-143z" fill="#080202"/>
<path transform="translate(572,275)" d="m0 0 26 5 56 12 1 1v26l-9 6-55 33-26 16-29 17-18 11h-1v-73l22-22 8-7z" fill="#B02D30"/>
<path transform="translate(653,330)" d="m0 0h2v107l-69 1-12 12h-1v-14h-57v-23l10-7 14-8 27-16 70-42z" fill="#050101"/>
<path transform="translate(516,352)" d="m0 0h1v61l-1 23h24l1 3 19 1 2 4 8 6v4l2 1v6l2 1-1 2h-34v124l5 2 1 2v6l-5 5h-6l-4-4-1-5 3-5 3-1v-122l1-2h-36l-15-15v-63h1v5h2l1-5 15 10 8 4 3-1z" fill="#BFBFBE"/>
<path transform="translate(456,245)" d="m0 0h18l10 17 2 4h53l12-21h19l-3 10-7 19-7 8-39 39-4-1-45-45-9-26z" fill="#060101"/>
<path transform="translate(684,716)" d="m0 0h11l8 3 5 4 1-6h13v50l-3 10-4 6-6 5-9 3h-15l-12-4-5-4 2-4 3-5 4 1 10 4h9l7-3 4-7v-7l-9 6-4 1h-7l-10-3-6-5-4-7-2-8v-8l3-10 7-8z" fill="#0E0303"/>
<path transform="translate(535,697)" d="m0 0h14l1 26 6-5 7-2h8l8 3 8 7 4 8 1 13-3 10-4 6-7 6-5 2h-13l-8-4-2-2-1 5h-14z" fill="#0E0303"/>
<path transform="translate(451,697)" d="m0 0h13v73h-13l-1-6-9 6-3 1h-9l-9-3-7-6-5-13v-10l3-10 6-8 10-5h10l9 4 5 4z" fill="#BFBFBE"/>
<path transform="translate(372,716)" d="m0 0 10 1 10 5 3 4 2 7v37h-13l-1-5-7 5-3 1h-11l-8-3-5-6-1-9 3-7 6-5 8-2h18l-2-8-6-3h-8l-10 4h-2l-3-7v-3l11-5z" fill="#BFBFBE"/>
<path transform="translate(472,717)" d="m0 0h13l6 13 7 19 2 5 2-2 7-20 6-15h13l-3 10-5 12-16 41-6 8-7 3h-12l-8-4 2-5 3-5 5 2h7l3-3 2-4-1-5-12-28-8-18z" fill="#BFBFBE"/>
<path transform="translate(603,717)" d="m0 0h13l1 34 4 6 8 1 7-3 3-6 1-32h14v53h-13l-1-6-8 6-3 1h-13l-6-3-6-7-1-3z" fill="#0B0203"/>
<path transform="translate(293,701)" d="m0 0h13l1 6v51h35l1 1v11l-2 1-48-1z" fill="#BFBFBE"/>
<path transform="translate(427,314)" d="m0 0 10 1 6 4 6 8 1 9-3 9-4 5-8 4h-9l-10-5-5-7-1-4v-7l3-8 8-7z" fill="#B02D30"/>
<path transform="translate(588,493)" d="m0 0 5 1 1 5 4 1 5-2 3 3-1 4-1 3 2 3 5 2v5l-6 3v5l1 4-3 2-4-1-2-1-3 1-2 5h-6l-2-5-5-1-4 2-3-5 2-4-1-3-5-2v-6l5-2 1-4-2-4 3-4 5 2 5-1 1-5z" fill="#EBEBEA"/>
<path transform="translate(422,420)" d="m0 0h5l4 4 1 5-3 5-2 1-1 4v62l4 2 15 15 49 1 1 70 5 4 1 5-3 5-5 2-5-2-3-5 2-6 4-2v-68h-46l-8-7-12-12-2-1-1-66-5-5v-7z" fill="#E8E8E8"/>
<path transform="translate(445,538)" d="m0 0h11l6 4 4 5 1 2v10l-4 6-5 4-9 2-8-3-6-7-1-3v-8l4-7 5-4z" fill="#1C0707"/>
<path transform="translate(606,387)" d="m0 0h6l8 13 7 12v5l-2 2h-32l-2-2 1-7 10-17z" fill="#38191A"/>
<path transform="translate(559,728)" d="m0 0h9l6 4 3 4 1 4v7l-4 8-6 4h-10l-7-6-2-6v-9l4-6z" fill="#eee"/>
<path transform="translate(431,728)" d="m0 0h10l6 4 3 5v13l-4 6-4 3h-11l-7-6-2-6v-9l3-5z" fill="#F1F1F1"/>
<path transform="translate(689,728)" d="m0 0h9l6 4 4 6v9l-4 7-6 3h-10l-6-4-3-7v-7l3-6 4-4z" fill="#eee"/>
<path transform="translate(536,464)" d="m0 0h2v124l5 1 2 3v6l-5 5h-6l-4-4-1-5 3-5 3-1v-122z" fill="#E4E4E4"/>
<path transform="translate(427,314)" d="m0 0 10 1 6 4 6 8 1 9-3 9-4 5-8 4h-9l-10-5-5-7-1-4v-7l3-8 8-7zm-2 5-6 4-4 6v10l4 6 5 4 8 1 7-3 5-5 1-3v-10l-4-6-6-4z" fill="#E5E5E4"/>
<path transform="translate(605,296)" d="m0 0h5v4l6-1 1 4v3l3 1-1 5-2 1 1 5-7 1-1 3h-5v-3l-7 1-1-5v-2l-3-1v-5l3-1-1-5 2-3 6 1z" fill="#E9E9E9"/>
<path transform="translate(586,320)" d="m0 0h2l-1 4-8 8v27h-33l-2 4-2 2h-7l-4-5 1-7 4-3 7 1 3 4 29 1v-25z" fill="#E3E3E3"/>
<path transform="translate(397,468)" d="m0 0h6l4 4v7l-5 4-1 62-4-3 1-59-4-2-2-2v-6z" fill="#E7E7E6"/>
<path transform="translate(606,387)" d="m0 0h6l8 13 7 12v5l-2 2h-32l-2-2 1-7 10-17zm2 3-8 13-6 11v2h29l1-2-13-23z" fill="#EAEAE9"/>
<path transform="translate(445,538)" d="m0 0h11l6 4 4 5 1 2v10l-4 6-5 4-9 2-8-3-6-7-1-3v-8l4-7 5-4zm2 3-5 3-4 5v10l6 7 3 1h8l6-4 3-7-1-8-5-5-4-2z" fill="#E7E7E7"/>
<path transform="translate(366,747)" d="m0 0h18l-1 8-5 6-3 1h-8l-6-5v-6z" fill="#F1F1F1"/>
<path transform="translate(718,692)" d="m0 0 9 5 6 4-1 8-5-2-7-5-5 2-7 5h-2v-9z" fill="#170606"/>
<path transform="translate(585,507)" d="m0 0h8l4 4 1 5-2 5-5 3-6-1-4-4v-8z" fill="#B02D30"/>
<path transform="translate(421,324)" d="m0 0 4 1 4 4 4-2 4-3 3 1-1 4-4 4 2 4 3 3-1 4-4-2-4-4-4 2-4 4-3-1 1-4 4-4-2-4-3-3z" fill="#E4E4E4"/>
<path transform="translate(623,488)" d="m0 0h5l7 6-4 2-2 4-2 2h-5l-4-4 1-7z" fill="#BFBFBE"/>
<path transform="translate(605,397)" d="m0 0 2 4 1 6 2 2-2 1-1 4 3 1h-15l1-5 6-11z" fill="#0A0202"/>
<path transform="translate(443,546)" d="m0 0 4 2 4 3 6-5 2 3-4 4 2 4 2 3-3 2-4-4-4 2-2 2h-3l1-4 3-4-5-6z" fill="#E8E8E8"/>
<path transform="translate(608,390)" d="m0 0 3 1 3 6h-2v7l-1 4-4-1-2-9-1-2z" fill="#521516"/>
<path transform="translate(605,304)" d="m0 0h5l2 2v6l-2 2-6-1-2-5z" fill="#B02D30"/>
<path transform="translate(623,491)" d="m0 0 6 2v3l-3 3-4-1-1-5z" fill="#F1F1F1"/>
<path transform="translate(607,396)" d="m0 0h4v12l-4-1z" fill="#E7E7E7"/>
<path transform="translate(386,312)" d="m0 0h5l-2 5h-8l-1-2z" fill="#C2C2C2"/>
</svg>
