<?xml version="1.0" encoding="UTF-8"?>
<svg version="1.1" viewBox="0 0 1024 1024" width="1024" height="1024" xmlns="http://www.w3.org/2000/svg">
<path transform="translate(0)" d="m0 0h1024v1024h-1024z" fill="#F3F3F3"/>
<path transform="translate(354,338)" d="m0 0 4 1-7 8-7 9-21 6-12 5-8 5-3 3 1 5 9 7 14 7 25 9 28 8 88 20 28 8 27 10 23 11 8 5 5-1 27-11 50-18 28-10 25-11 21-10 14-10 4-5 1-6-4-6-10-6-19-7-15-4-11-13-6-5 3-1 28 6 16 5 16 7 10 7 6 7 3 7v9l-3 8-7 8-10 8-21 12-20 9-31 12-49 17-26 10-30 13-25 12-22 13 4 3 5 3 5-2 29-15 19-9 33-13 39-14 31-11 32-13 25-13 12-8 7-5-1 12-6 30-5 20-7 23-9 22-8 16-9 16-12 16-9 11-14 14-11 9-12 9-19 12-17 9-21 8-23 6-19 3-10 1h-33l-21-3-22-5-18-6-18-8-17-9-12-8-12-9-14-12-10-10-9-11-8-10-13-21-8-15-9-23-8-28-9-43-3-20v-7l5 2 10 7 21 10 36 12 36 9 46 10 36 9 29 10 16 7 7-1 7-4-15-8-24-9-26-8-41-10-50-11-36-10-19-7-21-10-10-8-6-9-1-3v-9l4-8 9-8 12-6 21-7z" fill="#133550"/>
<path transform="translate(485,157)" d="m0 0h35l7 10 7 12 29 5 9 1 12-11 7-5 9 1 24 9 4 5 3 22 1 3 17 10 13 9 11-3 14-4 6 1 23 23v8l-5 21 11 15 10 15 6 1 16 1 6 2 5 8 9 21v6l-7 11-7 9 4 16 4 22 5 2 18 10 2 3 1 17v17l-4 5-18 10-3 4-5 28-2 10 11 13 5 7-3 11-10 23-2 2-14 2-12 1-7 10-10 14-6 8 2 11 3 12v5l-9 10-8 7-7 7-7 1-22-7-17 11-12 7h-2l-3 24-2 5-12 6-19 7-6-1-13-11-4-4-18 1-3-14 1-4 22-5 21-7 24-11 21-12 18-13 13-11 19-19 11-14 12-17 11-20 8-19 7-21 5-21 3-19 1-11v-27l-2-21v-8l2-8-1-10-4-8-9-10-5-12-12-25-8-14-12-17-9-11-11-12-9-9-14-11-12-9-18-11-21-11-22-8-27-7-20-3-11-1h-30l-25 3-22 5-20 6-25 11-18 10-12 8-13 10-14 12-14 14-11 14-12 17-9 16-8 16-5 12-8 7-5 8-1 3v15l1 3v7l-3 18-1 13v24l3 26 5 23 9 27 12 25 9 15 12 17 12 14 18 18 14 11 16 11 21 12 22 10 24 8 19 4 2 1-2 18-15-2-12 11-8 6-10-2-21-8-5-5-4-24-13-8-14-9-5-2-22 7-6-1-11-10-8-7-5-6v-7l4-16-1-7-10-12-8-12-1-1-24-2-5-3-13-28v-6l13-19-2-11-5-21v-5l-5-2-17-9-3-3-1-3-1-16v-15l2-4 15-9 6-4 4-21 3-17-11-12-5-8 1-7 9-24 4-5 17-3 9-2 8-13 9-14-1-7-5-14v-7l7-9 15-16 7-1 19 5 4-1 15-12 12-8 2-7 2-21 5-4 26-12 6 1 11 8 8 6 10-2 25-6h2l2-6 9-17z" fill="#123450"/>
<path transform="translate(689,275)" d="m0 0h2l6 7 1-4 6 3 4 4 5 3 3 3 4 1-3-6 1-2 11 15 3 5 6 1 16 1 6 2 5 8 9 21v6l-7 11-7 9 4 16 4 22 5 2 18 10 2 3 1 17v17l-4 5-18 10-3 4-5 28-2 10 11 13 5 7-3 11-10 23-2 2-14 2-12 1-7 10-10 14-6 8 2 11 3 12v5l-9 10-8 7-7 7-7 1-22-7-17 11-12 7h-2l-3 24-2 5-12 6-19 7-6-1-13-11-4-4-18 1-3-14 1-4 22-5 21-7 24-11 21-12 18-13 13-11 19-19 11-14 12-17 11-20 8-19 7-21 5-21 3-19 1-11v-27l-2-21v-8l2-8-1-10-4-8-9-10-5-12-12-25-8-14-12-17-9-11z" fill="#123450"/>
<path transform="translate(485,157)" d="m0 0h35l7 10 7 12 29 5 9 1 12-11 7-5 9 1 24 9 4 5 3 22 1 3 17 10 13 9 11-3 14-4 6 1 23 23v8l-5 21 7 9 1 4 2 6-6-2-4-4-5-3-5-4h-3l-1 3-6-6v-2l-4-1-15-15-14-11-12-9-18-11-21-11-22-8-27-7-20-3-11-1h-30l-25 3-22 5-20 6-25 11-18 10-12 8-13 10-14 12-8 8-4-4 2-1 2-6-1 1h-9l-7-3-3-2v-2h-9l-2 2h-3l-1-3 5-6 3-5 4-4h7l2 1 11 1 8 2 5-5 12-10 12-8 2-7 2-21 5-4 26-12 6 1 11 8 8 6 10-2 25-6h2l2-6 9-17z" fill="#285D89"/>
<path transform="translate(490,206)" d="m0 0h45l26 4 25 7 16 6 17 8 14 8 17 12 16 13 10 9 12 13 13 17 12 19 9 17 4 11v2l-5-2-6-4-10-21-12-19-13-16-10-11-4 2-5 7 1 4 1 3v10l-4 6-5 4-2 1h-10v17l-7-1v-19l-5-8v-8l4-8 5-4 5-2h10l8-10-1-4-4-2-10-8-21-14-23-12-23-9-19-5-23-4-11-1h-11l7 5 3 6v10l-4 7-6 4h-3l1 18 2 5 6 5 2 3v48l-7-2-1-43-10-10v-24l-5-2-6-7-1-10 4-8 6-5-20 1 1 53 21 21 1 2v30h-7l-1-27-9-10-13-13v-55l-23 5-24 8-18 8h-2v26h33l8 7 4 5 5 5 10 9 18 18v15l-7 2-1-12-7-8-33-33h-19l-17-1-1-1v-27l-16 10v23l8 6 3 4 1 3v7l-2 5 32 1 13 13 15 1 5 5 4 5v3l-7 3-4-7-16-1-13-13-2-1-35-1-12-1-6-4-4-7v-10l4-6 5-4h2v-9l1-9-10 8-10 9-4 4v21l1 14 12 11 5 6 4 3 13-2h16l16 4 12 7 2 4-5 6-14-8-11-3h-13l-12 3-10 5-10 9-6 10-4 11-1 16-9-2-1-1v-8l4-16 5-10 8-10 9-8 3-3-21-21-1-2v-27l-6 5-14 19-11 19-6 11-10 4 2-6 10-20 14-21 8-10 9-10 17-17 14-11 14-10 16-9 16-8 15-6 20-6 25-5z" fill="#275C85"/>
<path transform="translate(488,328)" d="m0 0h22l17 4 12 5 13 9 12 11 8 11-2 5-6 12-4 11h-1l-2-12-6-11-9-10-12-8v-1l19-1-9-4-12-1-10 2-7 3 13 5 10 6 6 5 8 11 5 11 2 9v16l-5 15-7 10-7 7-7-1-21-9-25-8-30-8-12-3-4-13v-13l3-11 5-9 7-7 8-4h2l-2 5-8 12-3 9v13h2l1-6 8-16 8-11 7-7 17-13 8-5-10 2-12 6-16 3-11 6-10 9-7 10-5 14-1 7v16l-8-1-8-2v-11l4-16 8-16 9-12 9-9 14-10 13-6z" fill="#133550"/>
<path transform="translate(612,336)" d="m0 0h21l15 5 10 6 11 10 7 11 4 11 2 9v17l-2 5-15 7-38 14-45 16h-2l1-5 4-12v-9l-3-2-3 13-6 14-4 6-16 7-4-2-4-3 1-3 5-5 6-8 4-8 3-11 3-24 4-11 7-11 9-10 10-8 3-2-7 1-11 6-5 4-4-5 6-7 11-8 17-7z" fill="#133651"/>
<path transform="translate(719,445)" d="m0 0 1 3-8 32-6 18-4 6-12 10-16 10-16 8-15 6-16 4-25 2-19-1-22-4-26-9-8-4v-2l25-13 36-15 50-18 26-9 16-6v9l-4 13-6 7-14 4h-6l-4-5-7-3h-7l-7 3-4 5-2 5v8l4 7 6 4 3 1h7l7-3 5-6 2-7 16-3 8-4 6-8 4-11 3-20z" fill="#F3F3F3"/>
<path transform="translate(572,245)" d="m0 0 6 1 23 14 15 10 3 4v46l-5 6-23 12-16 10-6-1-17-11-17-10-5-4v-49l5-5 19-12z" fill="#51B85B"/>
<path transform="translate(331,471)" d="m0 0h8l29 6 30 8 29 10 28 12 12 6v2l-12 9-26-10-19-5-21-4-16-2-5-8-4-3-3-1h-10l-6 3-4 5-1 3v10l5 8 6 3h11l6-4 4-6h11l22 4 21 6 19 7v3l-12 12-11 14-7 11-3 7-6-2-16-12-13-10-13-11-11-9-17-12-12-8-7-19-4-16 10-1 7-4z" fill="#F3F3F3"/>
<path transform="translate(441,757)" d="m0 0h50l9 3 6 7 2 7v43l-4 9-5 5-8 3h-50l-8-3-6-5-3-7-1-14v-26l2-10 4-6 5-4z" fill="#12344F"/>
<path transform="translate(484,552)" d="m0 0 5 1 28 12 30 10 23 5 15 2h25l24-3 19-5 7-2-2 4-11 10-7 3-21 5-23 3h-23l-22-3-20-5-12-4-2-8-4-6-6-3h-10l-6 3-4 5-2 10 2 7 4 5 7 3h8l6-3 5-4 23 7 15 3 23 2h16l25-3 4 1-15 9-21 10-6 2h-40l-21-3-24-6-20-7-25-12-2-1 1-5 7-12 12-13 8-8z" fill="#F2F2F2"/>
<path transform="translate(614,757)" d="m0 0h63l8 4 4 5 2 7v22l-3 9-5 5-5 2-44 1-1 22h-19z" fill="#12344F"/>
<path transform="translate(402,233)" d="m0 0 2 1-10 8 3 1-2 4-8 5v23l8 6 3 4 1 3v7l-2 5 32 1 13 13 15 1 5 5 4 5v3l-7 3-4-7-16-1-13-13-2-1-35-1-12-1-6-4-4-7v-10l4-6 5-4h2v-9l1-9-10 8-10 9-4 4v21l1 14 12 11 5 6 4 3 13-2h16l16 4 12 7 2 4-5 6-14-8-11-3h-13l-12 3-10 5-10 9-6 10-4 11-1 16-9-2-1-1v-8l4-16 5-10 8-10 9-8 3-3-21-21-1-2v-27l-6 5-14 19-11 19-6 11-10 4 2-6 10-20 14-21 8-10 9-10 17-17 14-11 14-10z" fill="#153955"/>
<path transform="translate(349,757)" d="m0 0h60v16l-1 1-52 1-2 6 1 4 3 1 42 1 8 4 5 6 1 3v19l-3 8-6 5-7 2h-62l-1-1v-15l1-1 57-1v-10l-1-1-44-2-7-3-5-6-2-7v-14l3-9 6-5z" fill="#123550"/>
<path transform="translate(521,757)" d="m0 0h19l1 55 4 4h31l4-4 1-55h19l1 1v51l-2 13-4 7-7 4-4 1h-46l-9-3-6-7-2-5-1-6v-55z" fill="#12354F"/>
<path transform="translate(510,658)" d="m0 0 8 1 7 6 3 6h10l6 4 3 4 1 3v7l-4 6-10 7-6 8-6 5-7 2-10-1-6-4-11-12-8-6-3-5v-8l4-7 5-3h11l4-8 5-4z" fill="#133651"/>
<path transform="translate(302,430)" d="m0 0 25 10 24 8 52 13 43 9 34 10 24 9v2l-13 7-9 6-6-2-20-9-24-10-36-12-24-6-38-7-3-7-5-5-3-1h-11l-4 2h-3l-3-14z" fill="#F3F3F3"/>
<path transform="translate(381,351)" d="m0 0 8 6 14 12 7 7 2 5-5 14-2 16-15-3-30-8-4-2v-17l4-11 6-8 7-7z" fill="#51B75B"/>
<path transform="translate(634,241)" d="m0 0 5 2 16 12 11 9 10 9 12 13 13 17 12 19 9 17 4 11v2l-5-2-6-4-10-21-12-19-13-16-10-11-4 2-5 7 1 4 1 3v10l-4 6-5 4-2 1h-10v17l-7-1v-19l-5-8v-8l4-8 5-4 5-2h10l8-10-1-4-4-2-10-8-22-15 2-1 5 1v-2z" fill="#143954"/>
<path transform="translate(572,245)" d="m0 0 6 1 23 14 15 10 3 4v46l-5 6-23 12-16 10-6-1-17-11-17-10-5-4v-49l5-5 19-12zm0 9-17 11-16 10-1 1v42l19 12 15 9h5l28-17 6-4v-42l-22-14-13-8z" fill="#153A56"/>
<path transform="translate(689,530)" d="m0 0 2 1-8 13-8 7-19 9-20 6-17 3-18 1-20-1-24-4-26-8-25-10-8-4 4-4 7-4 6 1 19 8 21 7 17 4 13 2h30l19-3 21-6 23-11z" fill="#F3F3F3"/>
<path transform="translate(497,567)" d="m0 0h10l8 5 4 7v6l12 3 25 6 17 2h23l23-3 21-5 3 1-12 10-8 5-19 2-10 1h-16l-23-2-18-4-21-6-7 6-3 1h-8l-8-4-5-7-1-8 3-9 7-6z" fill="#318360"/>
<path transform="translate(283,478)" d="m0 0 5 1 5 6 7 25 6 16 8 16 6 11 11 16 13 16 9 10 8 7 12 10 18 13 29 15 15 6 22 7 7 7-1 3-17-4-21-7-29-14-17-11-12-9-11-9-13-12-11-12-14-19-9-15-11-21-6-17-6-19-3-12z" fill="#133752"/>
<path transform="translate(739,478)" d="m0 0h2l-1 8-5 19-7 20-12 25-12 19-11 14-11 12-14 14-11 9-12 9-14 9-23 12-21 8-16 5-11 2 2-5 7-6 20-6 19-8 23-12 17-12 10-8 12-11 11-11 9-11 10-14 9-15 12-25 6-18 5-18z" fill="#133751"/>
<path transform="translate(449,774)" d="m0 0h35l4 4v35l-4 4h-36l-4-3-1-3v-32l3-4z" fill="#F3F3F3"/>
<path transform="translate(351,490)" d="m0 0h10l6 3 5 6 1 4 16 1 26 5 20 6 19 8-2 4-6 5-8-4-25-8-23-5-18-2-2 5-6 5-2 1h-11l-7-4-5-8v-10l3-6 6-5z" fill="#133650"/>
<path transform="translate(486,380)" d="m0 0h34l5 3 2 7v17l-2 9-6 4h-27l-7-2-3-3-1-3v-26z" fill="#F3F3F3"/>
<path transform="translate(687,460)" d="m0 0h3l-1 15-4 13-6 9-7 5-11 3h-8l-1 7-7 8-6 2h-7l-8-4-5-6-1-3v-8l4-8 6-5 4-1h7l7 3 4 4v2l18-4 5-4 4-8 2-8 1-9z" fill="#143752"/>
<path transform="translate(572,254)" d="m0 0 6 1 19 12 14 9v42l-16 10-18 11-7-1-26-16-6-4v-42l10-7 15-9zm2 7-10 5-17 11-3 3v35l20 12 9 6 6-2 22-14 3-3 1-19v-15l-8-6-21-13z" fill="#F3F3F3"/>
<path transform="translate(481,522)" d="m0 0 6 1 8 4-5 4-14 11-14 12-9 9-10 13-8 16-3 13-1 14-6-2-4-4-1-4v-10l3-12 7-14 8-11 11-13 9-9 11-9z" fill="#F3F3F3"/>
<path transform="translate(333,530)" d="m0 0h2v2l4 2 16 12 11 9 12 10 17 13 10 7 3 3-3 17-5-2-13-9-14-12-16-16-10-13-10-15z" fill="#F2F2F2"/>
<path transform="translate(390,332)" d="m0 0h16l16 4 12 7 2 4-5 6-14-8-11-3h-13l-12 3-10 5-10 9-6 10-4 11-1 16-9-2-1-1v-8l4-16 5-10 8-10 9-8 8-5h2l1-2z" fill="#143753"/>
<path transform="translate(663,274)" d="m0 0 7 3-6 7-3 4 1 4 1 3v10l-4 6-5 4-2 1h-10v17l-7-1v-19l-5-8v-8l4-8 5-4 5-2h10l5-6z" fill="#275C83"/>
<path transform="translate(497,567)" d="m0 0h10l8 5 4 7v9l-4 8-6 5-3 1h-8l-8-4-5-7-1-8 3-9 7-6z" fill="#133651"/>
<path transform="translate(325,514)" d="m0 0 5 2 16 11 9 7 13 11 14 11 17 13 12 8-3 10-6-3-19-14-12-10-11-9-14-11-11-8v-2l-3-1z" fill="#318360"/>
<path transform="translate(397,287)" d="m0 0 2 1v7l-2 5 32 1 13 13 15 1 5 5 4 5v3l-7 3-4-7-16-1-13-13-2-1-35-1-12-1-6-4-3-5 1-3 8 3h10l3-4 1-6 1 2 5-1z" fill="#153A55"/>
<path transform="translate(631,376)" d="m0 0h30l4 4 1 3v10l-3 5-2 1-21 1-1 9h-8z" fill="#F3F3F3"/>
<path transform="translate(373,503)" d="m0 0 16 1 26 5 20 6 19 8-2 4-6 5-8-4-25-8-23-5-18-2z" fill="#338660"/>
<path transform="translate(479,215)" d="m0 0h5l1 53 21 21 1 2v30h-7l-1-27-9-10-13-13v-54z" fill="#51B75B"/>
<path transform="translate(445,607)" d="m0 0 19 9 14 6 25 8 22 5v1h-32l-26-4-18-5-3-4-1-4z" fill="#F3F3F3"/>
<path transform="translate(634,774)" d="m0 0h34l3 2 1 4v9l-3 5-21 1-14-1z" fill="#F3F3F3"/>
<path transform="translate(618,375)" d="m0 0h4v29l-5 5h-26l-4-3-1-3v-27h8l1 24 1 1h16l1-1 1-24z" fill="#F3F3F3"/>
<path transform="translate(569,286)" d="m0 0h24v7h-22v5h19l4 4v10l-5 4h-25v-6l1-1h21l-1-4-19-1-3-4v-8l3-5z" fill="#F3F3F3"/>
<path transform="translate(687,460)" d="m0 0h3l-1 15-4 13-6 9-7 5-11 3h-8l-2-6v-3l17-4 5-4 4-8 2-8 1-9z" fill="#4FB45B"/>
<path transform="translate(405,269)" d="m0 0h36l4 2 5-2 5 6 5 5 10 9 18 18v15l-7 2-1-12-7-8-33-33h-19l-16-1z" fill="#163C55"/>
<path transform="translate(374,367)" d="m0 0h16l6 1v5l-1 1h-20v4h17l4 3 1 8-3 5-2 1h-23v-6l19-1 1-4h-18l-3-3-1-9 3-4z" fill="#F3F3F3"/>
<path transform="translate(378,267)" d="m0 0h1l1 7 5-1 2 3 5 2 6 7-1 4-5 1-3 7-2 2h-11l-4-1v-2l-3 1-2-1v-10l4-6 5-4h2z" fill="#275C83"/>
<path transform="translate(493,389)" d="m0 0h22l1 1v19l-3 2h-20l-2-3v-15z" fill="#143851"/>
<path transform="translate(572,245)" d="m0 0 6 1 23 14 14 9-1 4h-2v-2h-2l-1 2v-2l-6-2-1 2-23-14-3-2-5 1-9 5h-12l-1-2z" fill="#25587F"/>
<path transform="translate(683,368)" d="m0 0 9 2 10 4 6 5 2 4v8l-5 6-14 8h-3l1-9 6-4 2-2v-5l-4-3-6-2-4-10z" fill="#143853"/>
<path transform="translate(402,233)" d="m0 0 2 1-10 8 3 1-2 4-8 5v25l-3-3h-4l-1 2v-18l-5 4-8 2-3 1-10 9-2-1 5-6 4-5 14-11 14-10z" fill="#24567C"/>
<path transform="translate(353,280)" d="m0 0h1l2 34 12 11 5 6 3 2v3l-6 3-22-22-1-2v-29z" fill="#4EB35B"/>
<path transform="translate(508,685)" d="m0 0h8l7 6 2 9-3 5-4 3-7 1-7-3-4-5v-7l4-6z" fill="#F3F3F3"/>
<path transform="translate(507,256)" d="m0 0h1v13h5l4 1 5 4 2 3v48l-7-2-1-43-9-9z" fill="#133652"/>
<path transform="translate(634,290)" d="m0 0 2 1v2h2l1 5 1 6 3 3h8 4v4 1l2 1-5 3h-10v17l-7-1v-19l-5-8v-8l3-6z" fill="#153955"/>
<path transform="translate(393,347)" d="m0 0h11l13 4 9 5-7 11-4 4-6-5-4-5-11-9-3-4z" fill="#50B75B"/>
<path transform="translate(336,364)" d="m0 0h2l-1 10-8 3-1 3 6 6v5l-6-1-10-6-1-2v-7l5-6z" fill="#143752"/>
<path transform="translate(632,496)" d="m0 0h7l5 5v7l-4 4-7 1-5-3-1-2v-7z" fill="#F3F3F3"/>
<path transform="translate(498,576)" d="m0 0h8l4 4v8l-5 5h-6l-5-4-1-7 3-5z" fill="#F3F3F3"/>
<path transform="translate(355,498)" d="m0 0 6 1 3 3 1 7-3 5-4 2-6-1-4-4-1-5 3-5z" fill="#F3F3F3"/>
<path transform="translate(313,453)" d="m0 0h8l4 3 1 7-3 5-3 2h-6l-5-5v-8z" fill="#F3F3F3"/>
<path transform="translate(643,292)" d="m0 0h8l4 4v8l-4 4h-8l-4-4-1-6z" fill="#F3F3F3"/>
<path transform="translate(380,283)" d="m0 0h6l5 6-1 7-3 3h-8l-4-4-1-6 4-5z" fill="#F3F3F3"/>
<path transform="translate(506,222)" d="m0 0h8l4 5v7l-4 4h-7l-5-5v-6z" fill="#F3F3F3"/>
<path transform="translate(639,383)" d="m0 0h17l2 2-1 7h-18z" fill="#143851"/>
<path transform="translate(402,233)" d="m0 0 2 1-9 7-10 5h-2v2h-2v2l-11 9-4 5-3 1-10 9-2-1 5-6 4-5 14-11 14-10z" fill="#163C58"/>
<path transform="translate(325,514)" d="m0 0 5 2 13 9v6l-5 3-3-2v-2l-3-1z" fill="#348860"/>
<path transform="translate(383,252)" d="m0 0h2l1 3 1 22-3-3h-4l-1 2v-20z" fill="#12334F"/>
<path transform="translate(500,230)" d="m0 0 4 5 4 3 5 1-5 8-7-3-6-7v-5l2 1z" fill="#133652"/>
<path transform="translate(640,588)" d="m0 0 3 1-12 10-8 5h-9l4-4 10-4 5-5 4-2z" fill="#4BAE5C"/>
<path transform="translate(319,235)" d="m0 0 9 1 15 4 4-1h3l-5 4-8-2-11-1-5-1-5 1-7 7v-3l8-8z" fill="#19425D"/>
<path transform="translate(510,667)" d="m0 0 7 1 1 6-4 4-5-1-2-2 1-7z" fill="#F3F3F3"/>
<path transform="translate(489,679)" d="m0 0 5 1 2 2-1 6-2 2h-5l-3-3 1-6z" fill="#F3F3F3"/>
<path transform="translate(618,274)" d="m0 0h1v46h-1l-1-25-4-4v-6l3-4 1 1z" fill="#2B697C"/>
<path transform="translate(533,679)" d="m0 0 5 2 1 1v6l-3 2h-5l-3-5 2-5z" fill="#F3F3F3"/>
<path transform="translate(357,247)" d="m0 0 3 1 5-1-4 5-11 9-5 5h-2l2-4 7-6 1-2-2-1 3-4z" fill="#153A56"/>
<path transform="translate(331,524)" d="m0 0 12 2v5l-5 3-3-2v-2l-3-1z" fill="#4EB35B"/>
<path transform="translate(402,233)" d="m0 0 2 1-9 7-10 5-3-1 16-10z" fill="#18405B"/>
<path transform="translate(364,261)" d="m0 0 2 2-3 2-10 9-2-1 5-6 4-5z" fill="#25577F"/>
<path transform="translate(653,257)" d="m0 0h5l6 5-2 2h-3l-4-2-3-4z" fill="#24567E"/>
</svg>
